<!-- Generated by IcoMoon.io -->
<svg version="1.1" xmlns="http://www.w3.org/2000/svg" width="96" height="96" viewBox="0 0 96 96">
<title>menu</title>
<path d="M12 22h72q1.656 0 2.828 1.172t1.172 2.828-1.172 2.828-2.828 1.172h-72q-1.656 0-2.828-1.172t-1.172-2.828 1.172-2.828 2.828-1.172zM12 70h72q1.656 0 2.828 1.172t1.172 2.828-1.172 2.828-2.828 1.172h-72q-1.656 0-2.828-1.172t-1.172-2.828 1.172-2.828 2.828-1.172zM12 46h72q1.656 0 2.828 1.172t1.172 2.828-1.172 2.828-2.828 1.172h-72q-1.656 0-2.828-1.172t-1.172-2.828 1.172-2.828 2.828-1.172z"></path>
</svg>
