<!-- Generated by IcoMoon.io -->
<svg version="1.1" xmlns="http://www.w3.org/2000/svg" width="96" height="96" viewBox="0 0 96 96">
<title>search</title>
<path d="M40 4q7.312 0 13.984 2.86t11.484 7.672 7.672 11.484 2.86 13.984q0 6.28-2.048 12.032t-5.828 10.436l22.72 22.688q1.156 1.156 1.156 2.844 0 1.72-1.14 2.86t-2.86 1.14q-1.688 0-2.844-1.156l-22.688-22.72q-4.688 3.78-10.436 5.828t-12.032 2.048q-7.312 0-13.984-2.86t-11.484-7.672-7.672-11.484-2.86-13.984 2.86-13.984 7.672-11.484 11.484-7.672 13.984-2.86zM40 12q-5.688 0-10.876 2.22t-8.936 5.968-5.968 8.936-2.22 10.876 2.22 10.876 5.968 8.936 8.936 5.968 10.876 2.22 10.876-2.22 8.936-5.968 5.968-8.936 2.22-10.876-2.22-10.876-5.968-8.936-8.936-5.968-10.876-2.22z"></path>
</svg>
