<svg style="display: none"><symbol viewBox="0 0 96 96" id="icon-caricatura"><title>caricatura</title>  <path d="M31.083 61.632c-0.432-0.299-0.972 0.868-1.478 1.109-1.686-1.394-3.401-2.758-3.88-5.358 0.518-1.822 3.277-1.404 4.619-2.402-0.185-0.29-0.999-1.564-0.185-1.663 1.606 2.58 0.906 5.392 0.924 8.315zM64.711 31.884c0.010-0.113 0.028-0.219 0.185-0.185 0.609 2.286-0.476 6.265 0.924 7.76-1.287-0.252-2.105-0.974-3.511-1.109-0.384 1.033-2.108 0.725-2.772 1.478-0.182-0.434-0.925-0.307-0.924-0.924 0.58-0.093 0.755 0.435 0.924-0.185-3.58-0.052-4.618-2.277-7.021-3.511-2.124-1.091-5.44-2.456-7.021-0.924-0.522 0.153-0.479-0.26-0.924-0.185-0.731 0.747-1.785 1.171-2.402 2.032-0.093-0.997-0.056-2.67-0.185-3.326 0.328-1.574 0.121-7.348 1.663-9.423 5.896-1.511 11.521 1.148 11.456 6.652-0.417 0.551-1.085 1.264-0.739 2.032 0.376-0.371 0.492-0.048 0.739 0.185 2.265-1.709 1.045-6.088-0.37-7.76 3.621 1.943 9.911 3.118 9.978 7.391zM35.888 11.929c-2.797-0.098-4.184-3.207-8.315-2.587-0.801 1.944-3.295 1.434-4.25 3.141-0.315 0.562 0.075 1.353-0.185 2.032-0.618 1.617-2.515 1.873-3.695 3.141-0.812 0.873-1.096 2.111-1.663 3.511-1.6 3.954-3.251 7.025-1.848 12.010 0.553-0.122-0.177-0.395 0-0.739 0.836 0.026 0.743 0.981 0.739 1.848-0.237 0.317-0.737 0.371-0.924 0.739 0.304 0.559 0.731 0.994 0.554 2.032 2.741 1.509 1.822 6.677 3.88 8.869-0.568 1.403-0.479 3.463-0.739 5.174 0.882-3.924 0.92-7.566 4.434-8.869 1.318 2.377 3.458 3.933 4.065 7.021-1.832-1.555-2.24-4.535-5.913-4.25-0.965 1.777-1.928 5.229-0.185 6.467-0.231-0.982-0.146-1.929 0.185-3.511 0.914-0.492 1.481-1.63 2.402-0.739-0.256 0.606-0.849 0.875-1.293 1.293 0.686 1.399 0.047 2.365 0.739 3.88 0.071-0.716-0.474-3.16 1.109-3.326 0.796 1.692-1.045 3.236 0.185 4.434 0.334-1.824 1.237-0.666 2.217-0.739 0.107 0.6-0.126 0.859-0.185 1.293-0.316 0.008-0.479-0.137-0.554-0.37-0.611 1.071-2.672 1.59-2.587 3.141-0.491 0.002-1.055-0.070-1.293 0.185-0.647 0.031-0.582-0.65-0.924-0.924-0.732 2.032 1.606 4.010 2.772 5.358-1.749-0.838-2.94-2.233-3.88-3.88 0.267 2.837 3.346 3.608 5.358 5.173 2.362 1.837 2.96 4.543 4.989 6.652 1.984 5.602 4.556 13.175 7.945 18.292 0.732 1.105 1.913 1.944 2.217 3.141 0.663 2.611-0.007 6.435-1.109 7.945 0.418 0.444 0.688 1.037 1.293 1.293-0.203-1.030 1.068-0.381 1.109 0-0.021-1.069 0.139-4.406-0.185-6.467 1.686 2.009 2.317 5.074 3.695 7.391-0.072 0.857-0.307 1.143 0.37 1.478 0.464-0.662-0.392-1.567-0.739-2.587-0.458-1.345-0.617-3.042-1.478-3.88-0.064-2.131-2.407-2.836-2.032-4.804-0.416-0.385-0.528-1.073-0.924-1.478 0.17-1.094-0.316-1.531-0.37-2.402-2.15-1.176-2.388-4.264-3.695-6.282-0.028-0.459 0.096-0.767 0.37-0.924-0.208-0.346-0.219-0.89-0.924-0.739 0.462-0.444 0.175-0.489 0.185-1.293-0.377 0.103-0.362 0.556-0.739 0.185 1.16-2.928-1.452-5.167-2.032-8.315-0.331-0.023-0.39 0.226-0.739 0.185-0.173-1.612-0.455-2.786-0.37-4.434 2.207 0.549 3.437 4.328 6.282 5.358-0.121-1.083 0.847 0.2 1.109-0.37 0.664 0.064-0.065-0.673 0.37-1.109 0.284 0.567 0.401 1.116-0.37 1.663 1.684 4.302 3.058 10.149 8.13 11.64 0.267 0.572-0.030 0.718-0.37 1.109 1.164 0.376 2.895 0.185 3.88 0.739 0.909 2.504 0.865 4.444 1.663 6.467-0.732-0.068-1.066-0.536-1.293-1.109-1.161 0.287-1.438 0.067-2.217 0.554-0.216 1.631-0.258 2.536-1.293 3.511 0.105 1.95 1.525 1.763 2.032 2.402 0.487 0.157 0.239-0.838 0.185-1.109 1.033-1.677 2.493-2.927 3.511-4.619 0.552 0.941-0.651 2.903 0 4.434 0.040-1.445 0.926-4.086 0.185-5.728 1.101-0.25-0.301-1.25 0.554-2.217-1.449-0.291-0.057-1.771 0.37-1.848 0.128-1.052-0.313-1.535-0.185-2.587-0.266 0.042-0.065 0.551-0.37 0.554-1.202-2.799 3.226-3.995 1.848-7.575 2.154-1.727 5.368-2.393 6.097-5.543-1.32 2.632-5.206 2.058-6.652 3.88-3.221 0.711-4.728-1.233-5.913-3.511-0.251 0.057-0.153 0.463-0.185 0.739-0.502-0.668-1.073-1.267-1.478-2.032-1.113 2.656 2.309 4.705 1.478 7.021-0.149-0.159-0.506-0.11-0.554-0.37-0.665 0.44 1.437 0.635 0.924 0.924 0.828-0.355 3.204-1.286 4.804-0.924 0.258 0.491 0.781 1.711 0.185 2.772-2.061 1.72-3.423 0.138-6.097 1.109-1.486-0.362-1.801-1.894-2.956-2.587-0.41-0.102-0.263 0.353-0.554 0.37-1.608-1.3-2.133-3.938-3.695-5.728 0.187-0.52 0.785 0.051 1.109 0-0.438-0.826-0.931-2.154-1.293-2.032 0.059-0.434 0.292-0.694 0.185-1.293-1.411-1.703-0.927-3.93-2.772-4.434-0.724-4.836-3.452-8.384-4.065-14.227-0.141 0.29-0.586 0.276-0.554 0.739-2.544-2.021-1.218-6.188-2.772-8.684-0.789-7.194 5.096-7.714 7.76-11.456 0.759 4.376 1.246 9.863-1.478 13.119 2.157-0.369 3.223-3.428 3.695-6.097 1.742-0.839 4.373-2.149 6.836-1.109 0.49 0.429-0.49 0.495 0 0.924 0.531-0.038 0.939 0.047 1.109 0.37-0.447 0.287-2.605 0.24-2.032-0.554-0.808 1.18-2.172-0.068-3.695 0.185 1.702 0.823 4.054 0.996 5.728 1.848 0.023-0.331-0.226-0.39-0.185-0.739 1.113-0.049 1.965 0.672 1.478 1.663 0.421-0.052 0.695 0.045 0.739 0.37-0.081 0.274-0.236-0.073-0.554 0 0.352 1.568 3.025 0.913 3.141-0.37 0.584 0.258 0.928 0.961 1.663 0.554-0.079-0.518-0.234-1.458-0.554-2.217 3.325 0.022 4.241 3.655 7.206 4.25-0.147-0.408-0.868-0.24-0.924-0.739 1.556 0.23 2.403 1.17 4.065 1.293 0.804-0.304 1.209-1.008 2.032-1.293-0.081-1.212-0.82-1.767-1.848-2.032-0.264-2.974 0.804-4.615 2.217-5.913 0.835 0.336 1.099 1.241 1.293 2.217 0.574-0.227 0.811-0.79 0.924-1.478 2.653 1.063 5.394 0.184 7.945 0.924 0.366-1.481 2.218-1.477 2.956-2.587 0.008-0.562-0.39-0.719-0.554-1.109-0.217 0.030-0.156 0.337-0.185 0.554-0.368-0.186-0.789-0.319-0.924-0.739-0.228-0.598 0.598-0.141 0.37-0.739-0.948-0.592-1.413-1.667-2.587-2.032 0.156-0.772-0.359-0.873-0.37-1.478-4.113-2.724-7.218-6.455-10.347-10.162-0.24-0.458 0.412-0.897 0-0.924-2.116-2.565-5.578-3.783-8.499-5.543v-0.739c-6.653-0.973-16.295-5.203-20.509 1.293-1.712-0.85-2.506-1.051-4.065-1.478-0.177 0.674 1.549 1.035 1.848 1.848z"/> <path d="M66.374 58.491c-2.029-0.106-2.174-3.507-3.326-1.478-1.191-1.928-4.459-2.63-5.728-3.88 1.831-0.594 2.213 1.352 3.88 0.37-2.556-0.954-5.159-1.862-8.499-2.032 1.072 0.468 2.283 0.797 3.511 1.109-0.12 0.188-0.425 0.191-0.37 0.554-1.852-0.304-3.63-0.682-5.728-0.739-0.157 0.773 0.5 0.732 0.739 1.109-1.005 0.507-1.899-0.684-3.141-0.554 2.201 3.096 7.786 2.808 10.901 4.989-0.505 1.251 1.026 1.714 0.924 3.141 0.218-0.213 0.653-0.209 1.109-0.185 0.505 0.838-0.651 0.493-0.185 1.293-1.904-0.19-3.389-0.8-3.695-2.587-0.83 0.443-1.017-0.646-1.848-0.739-0.504-0.167 0.562-0.413 0-0.739-2.693-1.557-6.558-1.941-8.869-3.88-0.338-1.891-1.87-4.157-3.695-5.173 0.11-1.122 0.926-1.537 1.663-2.032-0.816-0.318-1.511 1.072-2.587 1.109 0.422 0.959-0.918 2.264-0.185 3.511 0.173-0.135 0.28-0.336 0.37-0.554 5.104 3.703 6.674 10.941 10.532 15.89 0.314 0.068 0.349-0.144 0.37-0.37 0.542 0.406 0.066 0.757 0.554 1.293 0.65-0.081 0.795-0.378 1.109-0.37-2.758-2.171-4.69-6.597-6.836-9.978 1.745 0.953 3.322 1.925 5.358 2.956 0.259-0.065 0.016-0.325-0.185-0.37 2.718 0.986 6.512 3.945 10.532 1.848 1.055 1.943-1.356 3.522-0.739 5.543 0.504 0.017 0.372-0.308 0.739 0-0.004 1.054 0.142 1.117 0 2.032 0.218-2.949 0.138-7.034 2.032-9.238 0.174 1.16-0.813 1.158-0.739 2.217 1.248-0.651 0.836-2.23 1.293-2.956 0.872-1.382 2.427-1.498 3.511-2.772-0.262-0.801-0.778 0.314-1.663 0 0.424-0.615 0.276-0.6 0-1.293-0.718 1.677-1.093 1.145-1.109 2.956z"/> </symbol><symbol viewBox="0 0 96 96" id="icon-closex"><title>closex</title>  <path d="M2 8l6-6 86 86-6 6-86-86zM88 2l6 6-86 86-6-6 86-86z"/> </symbol><symbol viewBox="0 0 96 96" id="icon-menu"><title>menu</title>  <path d="M12 22h72q1.656 0 2.828 1.172t1.172 2.828-1.172 2.828-2.828 1.172h-72q-1.656 0-2.828-1.172t-1.172-2.828 1.172-2.828 2.828-1.172zM12 70h72q1.656 0 2.828 1.172t1.172 2.828-1.172 2.828-2.828 1.172h-72q-1.656 0-2.828-1.172t-1.172-2.828 1.172-2.828 2.828-1.172zM12 46h72q1.656 0 2.828 1.172t1.172 2.828-1.172 2.828-2.828 1.172h-72q-1.656 0-2.828-1.172t-1.172-2.828 1.172-2.828 2.828-1.172z"/> </symbol><symbol viewBox="0 0 96 96" id="icon-search"><title>search</title>  <path d="M40 4q7.312 0 13.984 2.86t11.484 7.672 7.672 11.484 2.86 13.984q0 6.28-2.048 12.032t-5.828 10.436l22.72 22.688q1.156 1.156 1.156 2.844 0 1.72-1.14 2.86t-2.86 1.14q-1.688 0-2.844-1.156l-22.688-22.72q-4.688 3.78-10.436 5.828t-12.032 2.048q-7.312 0-13.984-2.86t-11.484-7.672-7.672-11.484-2.86-13.984 2.86-13.984 7.672-11.484 11.484-7.672 13.984-2.86zM40 12q-5.688 0-10.876 2.22t-8.936 5.968-5.968 8.936-2.22 10.876 2.22 10.876 5.968 8.936 8.936 5.968 10.876 2.22 10.876-2.22 8.936-5.968 5.968-8.936 2.22-10.876-2.22-10.876-5.968-8.936-8.936-5.968-10.876-2.22z"/> </symbol></svg>